<svg width="240" height="27" viewBox="0 0 240 27" fill="none" xmlns="http://www.w3.org/2000/svg">
<path d="M27.2062 1.70083C26.0784 2.27077 25.2326 3.00384 24.9103 4.18802C24.7331 4.84054 24.3505 4.45588 24.0645 4.35317C19.8352 2.8387 15.5073 4.2565 13.0382 7.97823C10.7887 11.3697 11.1029 16.0581 13.7854 19.0891C15.1201 20.6169 16.9224 21.6608 18.9118 22.0581C20.9013 22.4555 22.9663 22.1841 24.7855 21.2862C28.9019 19.2381 30.8272 14.9686 29.5927 10.5057C29.4235 9.90153 29.4417 9.66389 30.1365 9.51486C31.23 9.28124 32.0074 8.53408 32.5532 7.51705C34.9256 11.7644 34.3375 18.8071 29.2382 23.0786C24.139 27.3502 16.5183 27.1266 11.7654 22.6094C9.42507 20.4031 7.97815 17.4128 7.70035 14.2084C7.42254 11.004 8.33328 7.80944 10.259 5.23325C14.16 0.0171892 21.5692 -1.56776 27.2062 1.70083Z" fill="#1C1C1C"/>
<path d="M4.49912 16.5656C4.49912 19.3851 4.46287 22.1925 4.52127 25.004C4.5394 25.8438 4.25342 26.0109 3.51431 25.9666C2.57985 25.9102 1.63935 25.9404 0.694818 25.9666C0.197379 25.9827 -0.00199883 25.8659 1.50924e-05 25.304C0.0241822 20.8512 0.0322379 16.3965 1.50924e-05 11.9437C1.50924e-05 10.836 0.944544 10.4453 1.49636 9.823C2.16952 9.04237 2.89486 8.30828 3.66737 7.62581C3.86876 7.46066 3.99161 7.11628 4.29974 7.22302C4.67836 7.35997 4.50113 7.74665 4.50113 8.01249C4.51725 10.8582 4.50113 13.7059 4.50113 16.5515L4.49912 16.5656Z" fill="#1C1C1C"/>
<path d="M0.00402832 8.83003C0.00402832 5.93803 0.00402832 3.31388 0.00402832 0.689739C0.00402832 0.286954 0.169169 0.176197 0.547787 0.182238C1.68565 0.200364 2.82352 0.204391 3.95937 0.182238C4.41049 0.182238 4.53334 0.355434 4.52529 0.772316C4.50716 1.84171 4.5132 2.9111 4.52529 3.9805C4.53516 4.07971 4.52453 4.1799 4.49404 4.27483C4.46355 4.36976 4.41386 4.4574 4.34806 4.53231C2.96248 5.90983 1.57489 7.27931 0.00402832 8.83003Z" fill="#1C1C1C"/>
<rect x="26.3763" y="3.22131" width="4.83342" height="4.83342" rx="2.41671" fill="#B4E02D"/>
<path d="M47.8113 19.5725V7.33675H49.5593V19.5725H47.8113ZM56.3514 19.5725V8.85748H52.1562V7.33675H62.277V8.85748H58.0818V19.5725H56.3514ZM69.4343 15.4997V14.0489H74.1364V15.4997H69.4343ZM88.6334 19.7123C87.7012 19.7123 86.833 19.555 86.029 19.2404C85.2365 18.9258 84.549 18.4888 83.9664 17.9294C83.3837 17.3584 82.9292 16.6942 82.6029 15.9367C82.2767 15.1793 82.1135 14.3519 82.1135 13.4546C82.1135 12.5573 82.2767 11.73 82.6029 10.9725C82.9292 10.2151 83.3837 9.55666 83.9664 8.99732C84.549 8.42631 85.2365 7.98349 86.029 7.66886C86.8214 7.35423 87.6895 7.19691 88.6334 7.19691C89.5657 7.19691 90.4222 7.35423 91.2029 7.66886C91.9953 7.97184 92.6829 8.40883 93.2655 8.97984C93.8598 9.53918 94.3143 10.1976 94.6289 10.955C94.9552 11.7125 95.1184 12.5457 95.1184 13.4546C95.1184 14.3636 94.9552 15.1968 94.6289 15.9542C94.3143 16.7117 93.8598 17.3759 93.2655 17.9469C92.6829 18.5063 91.9953 18.9432 91.2029 19.2579C90.4222 19.5609 89.5657 19.7123 88.6334 19.7123ZM88.6334 18.1567C89.3093 18.1567 89.9327 18.0401 90.5037 17.8071C91.0864 17.574 91.5875 17.2477 92.007 16.8282C92.4382 16.397 92.7703 15.896 93.0033 15.325C93.2481 14.7539 93.3704 14.1305 93.3704 13.4546C93.3704 12.7787 93.2481 12.1553 93.0033 11.5843C92.7703 11.0133 92.4382 10.518 92.007 10.0985C91.5875 9.66737 91.0864 9.33525 90.5037 9.10219C89.9327 8.86913 89.3093 8.7526 88.6334 8.7526C87.9459 8.7526 87.3108 8.86913 86.7281 9.10219C86.1571 9.33525 85.6561 9.66737 85.2249 10.0985C84.7937 10.518 84.4558 11.0133 84.2111 11.5843C83.978 12.1553 83.8615 12.7787 83.8615 13.4546C83.8615 14.1305 83.978 14.7539 84.2111 15.325C84.4558 15.896 84.7937 16.397 85.2249 16.8282C85.6561 17.2477 86.1571 17.574 86.7281 17.8071C87.3108 18.0401 87.9459 18.1567 88.6334 18.1567ZM98.6433 19.5725V7.33675H109.183V19.5725H107.47V8.40301L107.89 8.85748H99.9368L100.374 8.40301V19.5725H98.6433ZM116.198 19.5725V8.40301L116.635 8.85748H112.02V7.33675H122.106V8.85748H117.491L117.911 8.40301V19.5725H116.198ZM124.93 19.5725V7.33675H126.66V16.7758L133.897 7.33675H135.505V19.5725H133.792V10.151L126.538 19.5725H124.93ZM140.019 19.5725V7.33675H141.452L146.941 16.5835H146.172L151.59 7.33675H153.024L153.041 19.5725H151.363L151.346 9.97618H151.748L146.923 18.0867H146.119L141.26 9.97618H141.697V19.5725H140.019ZM157.549 19.5725V7.33675H159.28V16.7758L166.516 7.33675H168.124V19.5725H166.411V10.151L159.157 19.5725H157.549ZM175.557 19.7123C174.555 19.7123 173.635 19.59 172.796 19.3453C171.968 19.0889 171.286 18.7393 170.75 18.2965L171.345 16.9331C171.834 17.3409 172.44 17.6556 173.163 17.877C173.897 18.0984 174.701 18.2091 175.575 18.2091C176.752 18.2091 177.626 18.0168 178.197 17.6323C178.768 17.2361 179.053 16.7 179.053 16.0241C179.053 15.558 178.931 15.1735 178.686 14.8705C178.441 14.5558 178.098 14.3286 177.655 14.1888C177.224 14.0373 176.711 13.9615 176.117 13.9615H173.233V12.5457H176.029C176.822 12.5457 177.433 12.4 177.865 12.1087C178.307 11.8057 178.529 11.3571 178.529 10.7628C178.529 10.2733 178.395 9.88295 178.127 9.59162C177.859 9.28864 177.503 9.06723 177.061 8.9274C176.629 8.78756 176.152 8.71764 175.627 8.71764C175.208 8.71764 174.771 8.75843 174.316 8.84C173.873 8.92157 173.442 9.0381 173.023 9.18959C172.603 9.32943 172.213 9.49257 171.852 9.67902L171.345 8.28065C171.974 7.93106 172.656 7.66886 173.39 7.49406C174.136 7.30761 174.876 7.21439 175.61 7.21439C176.227 7.21439 176.816 7.28431 177.375 7.42415C177.935 7.55233 178.43 7.75043 178.861 8.01845C179.304 8.28648 179.648 8.63024 179.892 9.04975C180.149 9.46927 180.277 9.9587 180.277 10.518C180.277 11.0774 180.149 11.5843 179.892 12.0388C179.648 12.4932 179.292 12.8545 178.826 13.1225C178.36 13.3905 177.818 13.5245 177.2 13.5245L177.288 13.0176C177.917 13.0176 178.5 13.14 179.036 13.3847C179.572 13.6294 179.997 13.9848 180.312 14.451C180.638 14.9054 180.801 15.4648 180.801 16.129C180.801 16.8165 180.597 17.4342 180.189 17.9819C179.793 18.5179 179.205 18.9432 178.424 19.2579C177.655 19.5609 176.699 19.7123 175.557 19.7123ZM182.686 19.5725L188.227 7.33675H189.958L195.516 19.5725H193.681L188.734 8.31561H189.433L184.487 19.5725H182.686ZM185.046 16.5136L185.518 15.1152H192.405L192.912 16.5136H185.046ZM198.327 19.5725V7.33675H200.058V18.0518H206.875V7.33675H208.605V19.5725H198.327ZM208.867 22.3518V19.118L209.287 19.5725H206.875V18.0518H210.493V22.3518H208.867ZM213.519 19.5725V7.33675H215.249V16.7758L222.486 7.33675H224.094V19.5725H222.381V10.151L215.127 19.5725H213.519ZM235.521 19.5725V15.5871L235.975 16.0067H232.147C231.157 16.0067 230.3 15.8377 229.578 15.4997C228.867 15.1618 228.319 14.6782 227.934 14.0489C227.562 13.408 227.375 12.6389 227.375 11.7416C227.375 10.8094 227.579 10.017 227.987 9.36439C228.395 8.70016 228.972 8.19908 229.717 7.86114C230.463 7.51154 231.331 7.33675 232.322 7.33675H237.234V19.5725H235.521ZM227.375 19.5725L230.399 15.2376H232.182L229.228 19.5725H227.375ZM235.521 15.0278V8.35057L235.975 8.85748H232.392C231.343 8.85748 230.539 9.10219 229.98 9.59162C229.42 10.0694 229.141 10.7802 229.141 11.7241C229.141 12.6214 229.403 13.3148 229.927 13.8042C230.463 14.2937 231.25 14.5384 232.287 14.5384H235.975L235.521 15.0278Z" fill="black"/>
</svg>
